<svg width="22" height="22" viewBox="0 0 22 22" fill="none" xmlns="http://www.w3.org/2000/svg">
<path d="M5.20638 1.83333L6.56169 6.73177V9.08073H7.73617V6.73177L9.10939 1.83333H7.92595L7.4336 4.06234C7.29518 4.71317 7.20716 5.17575 7.16683 5.45166H7.13103C7.07328 5.06575 6.98526 4.59972 6.86426 4.05339L6.38981 1.83334L5.20638 1.83333ZM10.479 3.68278C10.0812 3.68278 9.76054 3.76052 9.51579 3.91911C9.27104 4.07677 9.0906 4.32906 8.9751 4.67464C8.86052 5.02023 8.80323 5.47769 8.80323 6.04786V6.81771C8.80323 7.38146 8.85278 7.83294 8.95362 8.17302C9.05445 8.5131 9.22462 8.76364 9.46387 8.92497C9.70312 9.0863 10.0323 9.16667 10.4522 9.16667C10.861 9.16667 11.186 9.08713 11.4243 8.92854C11.6627 8.76996 11.8354 8.52122 11.9417 8.17838C12.0481 7.83555 12.1011 7.38237 12.1011 6.81771V6.04786C12.1011 5.47861 12.0472 5.02285 11.9382 4.68001C11.8291 4.3381 11.6555 4.08581 11.419 3.92448C11.1825 3.76315 10.8704 3.68278 10.479 3.68278ZM12.7223 3.78662V7.74153C12.7223 8.23103 12.8044 8.59104 12.9712 8.82112C13.138 9.0512 13.3971 9.16666 13.7482 9.16666C14.2542 9.16666 14.6357 8.92211 14.8887 8.43261H14.9137L15.0176 9.08072H15.9504V3.78661H14.7598V7.99218C14.7139 8.09026 14.6438 8.17063 14.5485 8.23388C14.4532 8.29804 14.3549 8.32877 14.2513 8.32877C14.1303 8.32877 14.044 8.27922 13.9917 8.17838C13.9395 8.07755 13.9129 7.90821 13.9129 7.67171V3.78662H12.7223ZM10.4521 4.50277C10.619 4.50277 10.7371 4.58995 10.8031 4.76595C10.8691 4.94104 10.9015 5.21985 10.9015 5.60026V7.24919C10.9015 7.64061 10.8691 7.9237 10.8031 8.09604C10.7371 8.26837 10.6199 8.35472 10.4539 8.35564C10.2871 8.35564 10.1716 8.26837 10.1084 8.09604C10.0442 7.9237 10.0135 7.64061 10.0135 7.24919V5.60026C10.0135 5.22076 10.046 4.94195 10.112 4.76595C10.178 4.59087 10.2908 4.50277 10.4521 4.50277ZM4.58333 10.0833C3.575 10.0833 2.75 10.9083 2.75 11.9167V18.3333C2.75 19.3417 3.575 20.1667 4.58333 20.1667H17.4167C18.425 20.1667 19.25 19.3417 19.25 18.3333V11.9167C19.25 10.9083 18.425 10.0833 17.4167 10.0833H4.58333ZM11.0448 11.9167H12.0134V14.271H12.0205C12.1076 14.1005 12.2325 13.9637 12.3929 13.8592C12.5533 13.7547 12.7269 13.7035 12.9121 13.7035C13.1504 13.7035 13.3368 13.7667 13.4725 13.8932C13.6082 14.0197 13.7074 14.2241 13.7679 14.5055C13.8284 14.7879 13.8574 15.1795 13.8574 15.68V16.3872H13.8592C13.8592 17.0536 13.7779 17.5418 13.6175 17.8553C13.4571 18.1688 13.2074 18.3262 12.8674 18.3262C12.6776 18.3262 12.5058 18.2826 12.3499 18.1955C12.1941 18.1084 12.0769 17.9886 11.999 17.8374H11.9775L11.8755 18.2599H11.0448V11.9167ZM5.02914 12.1423H8.01009V12.9533H7.01107V18.2599H6.02816V12.9533H5.02914V12.1423ZM15.6729 13.7052C16.0175 13.7052 16.2826 13.7685 16.4678 13.895C16.652 14.0215 16.782 14.2191 16.8581 14.4858C16.9332 14.7535 16.9709 15.1229 16.9709 15.5941V16.3604H15.2879V16.5877C15.2879 16.8747 15.2956 17.0893 15.313 17.2323C15.3304 17.3753 15.3655 17.4805 15.4186 17.5456C15.4718 17.6116 15.5539 17.6441 15.6657 17.6441C15.816 17.6441 15.9195 17.585 15.9754 17.4686C16.0313 17.3522 16.0622 17.159 16.0667 16.8867L16.9351 16.9369C16.9396 16.9754 16.9422 17.0302 16.9422 17.098C16.9422 17.5114 16.8285 17.8201 16.6021 18.0236C16.3756 18.228 16.0576 18.3298 15.6442 18.3298C15.1483 18.3298 14.8003 18.1732 14.6004 17.8625C14.4006 17.5517 14.3014 17.0712 14.3014 16.4194V15.6388C14.3014 14.9678 14.4049 14.4779 14.6112 14.1689C14.8174 13.86 15.1724 13.7052 15.6729 13.7052ZM7.70932 13.7912H8.71729V17.0729C8.71729 17.2718 8.73954 17.4147 8.78354 17.499C8.82754 17.5843 8.8993 17.6261 9.00196 17.6261C9.08905 17.6261 9.17465 17.5997 9.2544 17.5456C9.33507 17.4924 9.39223 17.424 9.43165 17.3415V13.7912H10.4396V18.2599H10.4378H9.65008L9.56414 17.7121H9.54087C9.32637 18.1264 9.00574 18.3333 8.57766 18.3333C8.28066 18.3333 8.06355 18.2358 7.92239 18.0415C7.78122 17.8472 7.70933 17.5427 7.70933 17.1302L7.70932 13.7912ZM15.6514 14.3856C15.5441 14.3856 15.4646 14.4181 15.4132 14.4805C15.3619 14.5437 15.3277 14.6472 15.3112 14.7902C15.2938 14.9332 15.2861 15.1504 15.2861 15.4419V15.7624H16.022V15.4419C16.022 15.155 16.0126 14.9387 15.9933 14.7902C15.975 14.6417 15.939 14.5374 15.8877 14.4769C15.8364 14.4164 15.7586 14.3856 15.6514 14.3856ZM12.4592 14.4178C12.362 14.4178 12.2731 14.4563 12.1906 14.5342C12.1081 14.6121 12.0491 14.7122 12.0151 14.8332V17.3701C12.0591 17.448 12.1164 17.5062 12.187 17.5456C12.2576 17.5841 12.3328 17.6047 12.4162 17.6047C12.5234 17.6047 12.6072 17.5662 12.6704 17.4883C12.7337 17.4104 12.7799 17.2796 12.8065 17.0944C12.8331 16.9102 12.8459 16.6535 12.8459 16.3281V15.7534C12.8459 15.4033 12.8356 15.1339 12.8136 14.9442C12.7916 14.7544 12.7523 14.6175 12.6973 14.5378C12.6413 14.458 12.5618 14.4178 12.4592 14.4178Z" fill="white"/>
</svg>
