<svg width="22" height="22" viewBox="0 0 22 22" fill="none" xmlns="http://www.w3.org/2000/svg">
<path d="M11 2.75C6.45068 2.75 2.75 6.45068 2.75 11C2.75 15.5493 6.45068 19.25 11 19.25C15.5493 19.25 19.25 15.5493 19.25 11C19.25 6.45068 15.5493 2.75 11 2.75ZM11 4.125C12.7429 4.125 14.322 4.78028 15.5332 5.84375C15.4043 6.02368 15.2297 6.24121 14.9531 6.50977C14.365 7.0791 13.425 7.76392 11.9883 8.29297C11.0161 6.49634 10.0627 5.14551 9.43164 4.29688C9.93384 4.1814 10.4602 4.125 11 4.125ZM8.07812 4.76953C8.64209 5.50806 9.64648 6.87769 10.6562 8.70117C7.86059 9.44239 5.2959 9.53637 4.27539 9.53906C4.73193 7.4148 6.16065 5.66651 8.07812 4.76953ZM16.4785 6.85352C17.3164 7.96265 17.8374 9.33496 17.875 10.8281C17.2627 10.6912 16.3604 10.5569 15.1895 10.5488C14.5798 10.5461 13.8897 10.5891 13.1484 10.6777C12.9766 10.2856 12.7913 9.90698 12.6113 9.53906C14.1528 8.94825 15.2029 8.16943 15.8984 7.49805C16.1348 7.26709 16.3201 7.05493 16.4785 6.85352ZM11.2793 9.94727C11.4377 10.2668 11.5989 10.5945 11.752 10.9355C8.81396 11.7493 6.70312 14.2415 5.80078 15.4902C4.76147 14.2871 4.125 12.7188 4.125 11C4.125 10.9705 4.125 10.9436 4.125 10.9141C5.0542 10.9248 8.0083 10.8604 11.2793 9.94727ZM15.1895 11.9023C16.4168 11.9023 17.2654 12.0742 17.7676 12.2031C17.448 14.0347 16.4141 15.6057 14.9531 16.6289C14.6792 14.9854 14.228 13.4224 13.6855 11.9883C14.228 11.9346 14.741 11.9023 15.1895 11.9023ZM12.2891 12.2246C12.9067 13.793 13.425 15.5144 13.6855 17.3379C12.8638 17.6843 11.9507 17.875 11 17.875C9.42358 17.875 7.96802 17.3459 6.81055 16.457C7.51684 15.4902 9.59278 12.9175 12.2891 12.2246Z" fill="white"/>
</svg>
