
<svg width="22" height="22" viewBox="0 0 22 22" fill="white" xmlns="http://www.w3.org/2000/svg">
<path d="M0.6875 4.64062V17.3594H6.83203C7.40137 17.3594 11.3223 17.2439 11.3223 13.6641C11.3223 11.427 9.78345 10.667 9.00195 10.4414C9.57666 10.1702 10.7207 9.52564 10.7207 7.79883C10.7207 6.8374 10.5837 4.64062 6.66016 4.64062H0.6875ZM14.6953 5.82227V6.98242H19.4434V5.82227H14.6953ZM3.48047 6.81055H6.10156C6.34864 6.81055 8.01367 6.67895 8.01367 8.27148C8.01367 9.63306 6.81055 9.77539 6.31641 9.77539H3.48047V6.81055ZM17.1875 8.03516C13.5969 8.03516 12.8477 11.1531 12.8477 12.5039C12.8477 16.5134 16.1348 16.9727 17.1875 16.9727C20.0261 16.9727 20.8318 15.1357 21.1621 14.1152H19.0996C19.019 14.3784 18.4175 15.2324 17.2734 15.2324C15.356 15.2324 15.1895 13.7339 15.1895 13.0625H21.291C21.4146 10.7422 20.3994 8.03516 17.1875 8.03516ZM17.123 9.77539C17.6951 9.77539 18.157 9.9419 18.4336 10.248C18.7102 10.5569 18.9143 11.0081 18.9707 11.6016H15.1895C15.2002 11.4377 15.2378 11.2498 15.2969 11.043C15.356 10.8308 15.4473 10.6294 15.5977 10.4414C15.748 10.2561 15.9575 10.095 16.1992 9.96875C16.4463 9.83984 16.7524 9.77539 17.123 9.77539ZM3.48047 11.6875H6.50977C7.11133 11.6875 8.5293 11.7815 8.5293 13.5137C8.5293 15.1921 6.74341 15.1895 6.4668 15.1895H3.48047V11.6875Z"/>
</svg>
