<svg width="22" height="22" viewBox="0 0 22 22" fill="none" xmlns="http://www.w3.org/2000/svg">
<path d="M20.5333 5.08713C19.8315 5.3988 19.0777 5.60853 18.2864 5.70313C19.0945 5.21913 19.7142 4.4528 20.0061 3.53907C19.2507 3.98713 18.4133 4.31273 17.5215 4.48873C16.808 3.72827 15.7916 3.25307 14.6667 3.25307C12.5063 3.25307 10.7551 5.005 10.7551 7.16467C10.7551 7.4712 10.7903 7.7704 10.8563 8.05567C7.60541 7.89287 4.72341 6.33527 2.79328 3.96807C2.45741 4.54593 2.26454 5.21767 2.26454 5.9356C2.26454 7.29227 2.95461 8.4898 4.00401 9.19087C3.36307 9.17033 2.75954 8.99433 2.23228 8.70173C2.23228 8.7186 2.23228 8.734 2.23228 8.75086C2.23228 10.6465 3.58014 12.2276 5.37021 12.5862C5.04241 12.6757 4.69627 12.7233 4.33914 12.7233C4.08761 12.7233 3.84194 12.6984 3.60361 12.6537C4.10154 14.2076 5.54621 15.3391 7.25781 15.3707C5.91947 16.4201 4.23281 17.0456 2.39948 17.0456C2.08414 17.0456 1.77248 17.0273 1.46594 16.9906C3.19734 18.1001 5.25287 18.7477 7.46241 18.7477C14.6579 18.7477 18.5915 12.7871 18.5915 7.61787C18.5915 7.44847 18.5878 7.2798 18.5805 7.11187C19.3453 6.55967 20.009 5.87107 20.5333 5.08713Z" fill="white"/>
</svg>
